#N canvas 1181 177 450 300 10;
#X obj 39 22 sysexin;
#X obj 39 45 pack f f;
#X obj 39 68 print sysex;
#X obj 41 124 pack f f;
#X obj 41 101 midiin;
#X obj 41 147 print midi;
#X obj 40 183 midirealtimein;
#X obj 40 208 pack f f;
#X obj 40 231 print midirealtimein;
#X obj 174 22 ctlin 0 1;
#X floatatom 174 45 5 0 0 0 - - -, f 5;
#X floatatom 244 45 5 0 0 0 - - -, f 5;
#X floatatom 314 45 5 0 0 0 - - -, f 5;
#X floatatom 384 45 5 0 0 0 - - -, f 5;
#X obj 244 22 ctlin 1 1;
#X obj 314 22 ctlin 2 1;
#X obj 384 22 ctlin 2 1;
#X connect 0 0 1 0;
#X connect 0 1 1 1;
#X connect 1 0 2 0;
#X connect 3 0 5 0;
#X connect 4 0 3 0;
#X connect 4 1 3 1;
#X connect 6 0 7 0;
#X connect 6 1 7 1;
#X connect 7 0 8 0;
#X connect 9 0 10 0;
#X connect 14 0 11 0;
#X connect 15 0 12 0;
#X connect 16 0 13 0;
