#N canvas 1190 333 450 370 10;
#X obj 58 35 hsl 128 15 0 127 0 0 ctl-out/1 ctl-in/1 empty -2 -8 0
10 -262144 -1 -1 6100 1;
#X obj 58 55 hsl 128 15 0 127 0 0 ctl-out/2 ctl-in/2 empty -2 -8 0
10 -262144 -1 -1 1500 1;
#X obj 58 75 hsl 128 15 0 127 0 0 ctl-out/3 ctl-in/3 empty -2 -8 0
10 -262144 -1 -1 5400 1;
#X obj 58 95 hsl 128 15 0 127 0 0 ctl-out/4 ctl-in/4 empty -2 -8 0
10 -262144 -1 -1 0 1;
#X obj 58 115 hsl 128 15 0 127 0 0 ctl-out/5 ctl-in/5 empty -2 -8 0
10 -262144 -1 -1 1900 1;
#X obj 58 15 hsl 128 15 0 127 0 0 ctl-out/0 ctl-in/0 empty -2 -8 0
10 -262144 -1 -1 3000 1;
#X obj 11 35 tgl 15 0 empty ctl-in/7 empty 17 7 0 10 -262144 -1 -1
0 1;
#X obj 11 55 tgl 15 0 empty ctl-in/8 empty 17 7 0 10 -262144 -1 -1
0 1;
#X obj 11 75 tgl 15 0 empty ctl-in/9 empty 17 7 0 10 -262144 -1 -1
0 1;
#X obj 11 95 tgl 15 0 empty ctl-in/10 empty 17 7 0 10 -262144 -1 -1
0 1;
#X obj 11 115 tgl 15 0 empty ctl-in/11 empty 17 7 0 10 -262144 -1 -1
0 1;
#X obj 11 15 tgl 15 0 empty ctl-in/6 empty 17 7 0 10 -262144 -1 -1
0 1;
#N canvas 572 146 450 300 connections 1;
#X obj 186 223 list append;
#X obj 186 267 print;
#X obj 186 201 midirealtimein;
#X obj 186 245 list prepend realtime;
#X obj 326 223 list append;
#X obj 326 267 print;
#X obj 326 201 midiclkin;
#X obj 326 245 list prepend clock;
#X obj 12 221 ctlin;
#X obj 12 243 pack f f f;
#X obj 12 265 print ctlin;
#X obj 98 222 notein;
#X obj 98 244 pack f f f;
#X obj 98 266 print notein;
#X obj 127 80 noteout;
#X obj 24 21 notein 1;
#X obj 24 45 pack f f;
#X msg 24 67 \; button/\$1 \$2;
#X obj 127 21 r led/1;
#X obj 206 21 r led/2;
#X obj 210 85 print;
#X obj 320 135 pack f f;
#X msg 320 157 \; ctl-in/\$2 \$1;
#X obj 320 94 ctlin;
#X msg 127 45 1 \$1 1;
#X msg 205 45 2 \$1 1;
#X obj 25 129 bendin;
#X obj 25 151 pack f f;
#X obj 25 173 print;
#X obj 115 123 touchin;
#X obj 115 145 pack f f;
#X obj 115 167 print touchin;
#X obj 226 126 sysexin;
#X obj 226 148 pack f f;
#X obj 226 170 print sysex;
#N canvas 702 581 450 300 send 1;
#X obj 15 15 r ctl-out/0;
#X obj 94 15 r ctl-out/1;
#X msg 15 39 0 \$1 1;
#X msg 94 39 1 \$1 1;
#X obj 174 15 r ctl-out/2;
#X msg 174 39 2 \$1 1;
#X obj 254 15 r ctl-out/3;
#X msg 254 39 3 \$1 1;
#X obj 15 65 r ctl-out/4;
#X obj 94 65 r ctl-out/5;
#X obj 174 65 r ctl-out/6;
#X obj 254 65 r ctl-out/7;
#X msg 254 89 7 \$1 1;
#X msg 174 89 6 \$1 1;
#X msg 94 89 5 \$1 1;
#X msg 15 89 4 \$1 1;
#X obj 12 136 r ctl-out/8;
#X msg 12 160 8 \$1 1;
#X obj 91 136 r ctl-out/9;
#X msg 91 160 9 \$1 1;
#X obj 171 136 r ctl-out/10;
#X obj 251 136 r ctl-out/11;
#X msg 251 160 11 \$1 1;
#X msg 171 160 10 \$1 1;
#X obj 12 186 r ctl-out/12;
#X msg 12 210 12 \$1 1;
#X obj 91 186 r ctl-out/13;
#X msg 91 210 13 \$1 1;
#X obj 171 186 r ctl-out/14;
#X msg 171 210 14 \$1 1;
#X obj 251 186 r ctl-out/15;
#X msg 251 210 15 \$1 1;
#X obj 377 276 nofeedback;
#X connect 0 0 2 0;
#X connect 1 0 3 0;
#X connect 2 0 32 0;
#X connect 3 0 32 0;
#X connect 4 0 5 0;
#X connect 5 0 32 0;
#X connect 6 0 7 0;
#X connect 7 0 32 0;
#X connect 8 0 15 0;
#X connect 9 0 14 0;
#X connect 10 0 13 0;
#X connect 11 0 12 0;
#X connect 12 0 32 0;
#X connect 13 0 32 0;
#X connect 14 0 32 0;
#X connect 15 0 32 0;
#X connect 16 0 17 0;
#X connect 17 0 32 0;
#X connect 18 0 19 0;
#X connect 19 0 32 0;
#X connect 20 0 23 0;
#X connect 21 0 22 0;
#X connect 22 0 32 0;
#X connect 23 0 32 0;
#X connect 24 0 25 0;
#X connect 25 0 32 0;
#X connect 26 0 27 0;
#X connect 27 0 32 0;
#X connect 28 0 29 0;
#X connect 29 0 32 0;
#X connect 30 0 31 0;
#X connect 31 0 32 0;
#X restore 305 27 pd send;
#X connect 0 0 3 0;
#X connect 2 0 0 0;
#X connect 2 1 0 1;
#X connect 3 0 1 0;
#X connect 4 0 7 0;
#X connect 6 0 4 0;
#X connect 6 1 4 1;
#X connect 7 0 5 0;
#X connect 8 0 9 0;
#X connect 8 1 9 1;
#X connect 8 2 9 2;
#X connect 9 0 10 0;
#X connect 11 0 12 0;
#X connect 11 1 12 1;
#X connect 11 2 12 2;
#X connect 12 0 13 0;
#X connect 15 0 16 0;
#X connect 15 1 16 1;
#X connect 16 0 17 0;
#X connect 18 0 24 0;
#X connect 19 0 25 0;
#X connect 21 0 22 0;
#X connect 23 0 21 0;
#X connect 23 1 21 1;
#X connect 24 0 14 0;
#X connect 24 0 20 0;
#X connect 25 0 14 0;
#X connect 25 0 20 0;
#X connect 26 0 27 0;
#X connect 26 1 27 1;
#X connect 27 0 28 0;
#X connect 29 0 30 0;
#X connect 29 1 30 1;
#X connect 30 0 31 0;
#X connect 32 0 33 0;
#X connect 33 0 34 0;
#X restore 349 82 pd connections;
#X floatatom 256 73 5 0 0 0 - ctl-in/13 ctl-out/13, f 5;
#X obj 238 72 tgl 15 0 empty ctl-in/14 empty 17 7 0 10 -262144 -1 -1
0 1;
#X obj 291 72 tgl 15 0 empty ctl-in/15 empty 17 7 0 10 -262144 -1 -1
0 1;
#X obj 31 35 tgl 15 0 ctl-out/7 empty empty 17 7 0 10 -262144 -1 -1
0 1;
#X obj 31 55 tgl 15 0 ctl-out/8 empty empty 17 7 0 10 -262144 -1 -1
1 1;
#X obj 31 75 tgl 15 0 ctl-out/9 empty empty 17 7 0 10 -262144 -1 -1
1 1;
#X obj 31 95 tgl 15 0 ctl-out/10 empty empty 17 7 0 10 -262144 -1 -1
0 1;
#X obj 31 115 tgl 15 0 ctl-out/11 empty empty 17 7 0 10 -262144 -1
-1 1 1;
#X obj 31 15 tgl 15 0 ctl-out/6 empty empty 17 7 0 10 -262144 -1 -1
0 1;
#X obj 169 336 ctlout;
#X msg 72 283 \$1 6 1;
#X msg 132 283 \$1 7 1;
#X msg 192 283 \$1 8 1;
#X msg 72 304 \$1 9 1;
#X msg 132 304 \$1 10 1;
#X msg 192 304 \$1 11 1;
#X obj 72 155 r ctl-out/6;
#X obj 132 177 r ctl-out/7;
#X obj 192 199 r ctl-out/8;
#X obj 72 198 r ctl-out/9;
#X obj 132 220 r ctl-out/10;
#X obj 192 242 r ctl-out/11;
#X connect 23 0 22 0;
#X connect 24 0 22 0;
#X connect 25 0 22 0;
#X connect 26 0 22 0;
#X connect 27 0 22 0;
#X connect 28 0 22 0;
#X connect 29 0 23 0;
#X connect 30 0 24 0;
#X connect 31 0 25 0;
#X connect 32 0 26 0;
#X connect 33 0 27 0;
#X connect 34 0 28 0;
